PathFileType	4	(X/Y/Z)	C:\Users\Basilio\Documents\Thesis Gigler\squatting_fais\c3dfiles\047\SJ_pre2\markers_experimental.trc
DataRate	CameraRate	NumFrames	NumMarkers	Units	OrigDataRate	OrigDataStartFrame	OrigNumFrames
200.000000	200.000000	4	60	mm	200.000000	204	1636
Frame#	Time	FHD			LBHD			RBHD			C7			T10			CLAV			LSHO			LUUPA			LMUPA			LDUPA			LLEP			LMEP			LRAD			LUL			LRFIN			RSHO			RUPA1			RMUPA			RDUPA			RLEP			RMEP			RRAD			RUL			RUFIN			RASI			USACR			LSACR			RSACR			LTHI1			LTHI2			LTHI3			LTHI4			LLFC			LMFC			LTIB1			LTIB2			LTIB3			LTIB4			LLMAL			LMMAL			LMT1			LMT2			LMT5			RTHI			RTHI2			RTHI3			RTHI4			RLFC			RMFC			RTIB1			RTIB2			RTIB3			RTIB4			RLMAL			RMMAL			RHEE			RMT1			RMT2			RMT5			LASI			
		X1	Y1	Z1	X2	Y2	Z2	X3	Y3	Z3	X4	Y4	Z4	X5	Y5	Z5	X6	Y6	Z6	X7	Y7	Z7	X8	Y8	Z8	X9	Y9	Z9	X10	Y10	Z10	X11	Y11	Z11	X12	Y12	Z12	X13	Y13	Z13	X14	Y14	Z14	X15	Y15	Z15	X16	Y16	Z16	X17	Y17	Z17	X18	Y18	Z18	X19	Y19	Z19	X20	Y20	Z20	X21	Y21	Z21	X22	Y22	Z22	X23	Y23	Z23	X24	Y24	Z24	X25	Y25	Z25	X26	Y26	Z26	X27	Y27	Z27	X28	Y28	Z28	X29	Y29	Z29	X30	Y30	Z30	X31	Y31	Z31	X32	Y32	Z32	X33	Y33	Z33	X34	Y34	Z34	X35	Y35	Z35	X36	Y36	Z36	X37	Y37	Z37	X38	Y38	Z38	X39	Y39	Z39	X40	Y40	Z40	X41	Y41	Z41	X42	Y42	Z42	X43	Y43	Z43	X44	Y44	Z44	X45	Y45	Z45	X46	Y46	Z46	X47	Y47	Z47	X48	Y48	Z48	X49	Y49	Z49	X50	Y50	Z50	X51	Y51	Z51	X52	Y52	Z52	X53	Y53	Z53	X54	Y54	Z54	X55	Y55	Z55	X56	Y56	Z56	X57	Y57	Z57	X58	Y58	Z58	X59	Y59	Z59	X60	Y60	Z60	

205	1.02	39.79565811157227	1461.84521484375	-894.9334716796877	-56.51045608520509	1590.029541015625	-983.3256835937502	-70.66523742675783	1615.791259765625	-838.8533935546877	-261.1098327636719	1504.689819335938	-917.7534179687502	-394.3532714843751	1192.691772460938	-911.1378173828127	-159.0147705078125	1374.788330078125	-912.354919433594	-199.0240173339844	1426.609008789063	-1091.67138671875	-338.6827087402344	1342.856079101563	-1211.909912109375	-310.5820617675782	1305.184448242188	-1230.5390625	-365.1616210937501	1291.729248046875	-1251.161865234375	-374.4923095703126	1226.594604492188	-1283.400268554688	-432.9137573242189	1212.794799804688	-1205.303588867188	-297.5565795898438	1059.17822265625	-1110.785034179688	-264.5764465332032	1020.693908691406	-1170.5947265625	-237.359359741211	1043.863647460938	-1074.832153320313	-216.1362915039063	1445.208251953125	-750.6489868164064	-359.7853393554688	1366.418701171875	-618.2320556640626	-333.9623413085938	1328.817626953125	-598.5305786132814	-388.2268066406251	1318.043823242188	-575.7183837890626	-397.1043395996095	1250.364379882813	-541.9970092773439	-459.6233520507814	1233.666625976563	-608.4522705078126	-313.9891052246094	1070.314697265625	-704.0523681640626	-295.6890258789063	1033.108276367188	-640.6294555664064	-254.5865020751954	1042.0146484375	-728.5524291992189	-244.7141113281251	944.9969482421877	-783.3530273437502	-414.5274353027345	1044.696044921875	-911.247741699219	-422.3386535644532	1014.925354003906	-940.1134033203127	-420.8614807128907	1013.968872070313	-881.9426269531252	-339.9623718261719	811.149841308594	-1104.037475585938	-309.6190490722657	733.5198364257814	-1117.690673828125	-261.9367370605469	732.4951171875001	-1105.912475585938	-341.1791381835938	680.6283569335939	-1118.9423828125	-368.6114501953126	506.6429748535157	-1104.63232421875	-322.7647705078126	476.136199951172	-994.0614013671877	-315.9339904785157	313.8509216308594	-1055.78662109375	-336.7927246093751	280.7390441894532	-1135.069946289063	-311.4656677246094	273.1893310546876	-1096.566772460938	-313.7821350097657	190.4038848876953	-1080.377563476563	-363.2018432617188	95.4618606567383	-1137.3486328125	-327.1792602539063	100.7604751586914	-1054.080932617188	-201.5123291015626	63.72340393066408	-1104.59033203125	-210.1050262451172	63.1568069458008	-1147.449951171875	-257.4049682617188	42.98992919921876	-1187.246215820313	-361.7320251464844	784.0803833007815	-693.9512329101564	-325.0544128417969	730.1588134765626	-677.5771484375001	-291.8074645996094	731.5263061523439	-680.9573364257814	-350.2203063964844	649.2738647460939	-683.9319458007814	-338.6339721679688	500.513885498047	-688.1214599609376	-292.1090087890626	483.6177062988282	-799.4964599609377	-301.3108520507813	372.0080566406251	-687.0929565429689	-370.0469970703126	292.8840637207032	-656.5845947265626	-323.8400878906251	292.1027221679688	-662.0064697265626	-308.3130493164063	241.6769714355469	-690.5234985351564	-374.1272888183594	92.04442596435548	-663.7406005859376	-330.5986938476563	104.1593551635742	-746.9844970703126	-418.1659545898439	51.47914886474611	-723.7835083007814	-206.3704071044922	56.2525978088379	-697.9376831054689	-214.6647033691407	59.56330871582033	-652.2911987304689	-270.5668640136719	30.95813369750977	-605.5886840820314	-241.0737304687501	941.588806152344	-1013.287475585938	
206	1.025	39.84303665161134	1461.832763671875	-894.9658203125002	-56.3527297973633	1589.978515625	-983.4107055664065	-70.65389251708986	1615.724487304688	-838.643981933594	-260.9711608886719	1504.658569335938	-917.6455688476565	-394.3382568359376	1192.688720703125	-910.7731933593752	-158.9958190917969	1374.728515625	-912.2562255859377	-199.1471405029297	1426.555908203125	-1091.601440429688	-339.0380554199219	1342.657470703125	-1211.51953125	-310.9078674316407	1305.049194335938	-1230.204711914063	-365.5448303222657	1291.589965820313	-1250.802856445313	-374.8800354003907	1226.355346679688	-1283.001831054688	-433.223602294922	1212.654907226563	-1204.89501953125	-297.7794494628907	1059.083618164063	-1110.436889648438	-264.8270874023438	1020.616149902344	-1170.44775390625	-237.4461364746094	1043.7880859375	-1074.567138671875	-215.8455963134766	1445.078002929688	-750.1818847656251	-359.2030944824219	1366.48974609375	-617.9756469726564	-333.7006225585938	1328.87841796875	-598.2787475585939	-387.7210388183595	1318.068115234375	-575.3861694335939	-396.5905761718751	1250.425415039063	-541.6514282226564	-459.1687622070314	1233.75244140625	-607.9996337890626	-313.6355895996094	1070.273071289063	-703.7744140625001	-295.5546264648438	1033.040893554688	-640.6286621093751	-254.4362030029297	1041.952880859375	-728.3796997070314	-244.9130249023438	945.0161132812502	-782.9667968750002	-414.4787597656251	1044.8154296875	-910.886413574219	-420.1678466796876	1014.164916992188	-940.1617431640627	-420.8304138183595	1014.103393554688	-881.6062011718752	-340.3957824707032	811.1526489257815	-1103.559326171875	-310.0090332031251	733.4840698242189	-1117.25341796875	-262.1675109863282	732.5648803710939	-1105.648193359375	-341.4326782226563	680.6145019531251	-1118.61474609375	-368.7940368652344	506.6474609375001	-1104.274780273438	-322.8414001464844	476.045867919922	-993.7059326171877	-315.8935546875001	313.8494262695313	-1055.597900390625	-338.0943603515626	280.2027893066407	-1133.605224609375	-311.0487060546876	273.0624694824219	-1096.366821289063	-313.7298889160157	190.2794952392578	-1080.248413085938	-363.1741027832032	95.49489593505861	-1137.254638671875	-327.1250915527344	100.7696075439453	-1053.996826171875	-201.4482879638672	63.82887649536134	-1104.572998046875	-210.5598449707032	63.64017486572267	-1147.463623046875	-257.4167480468751	42.98112487792969	-1187.236206054688	-361.8669738769532	784.315124511719	-693.8707275390626	-325.5007934570313	729.7933349609376	-678.0120849609376	-292.1892395019532	731.6341552734376	-680.6562500000001	-350.6746520996094	649.4653930664064	-683.7864990234376	-339.2076721191407	500.5801391601564	-688.0629882812501	-292.2254943847657	483.6304626464845	-799.1384277343752	-301.9384765625001	372.1160583496094	-686.8832397460939	-370.6741943359376	292.8696289062501	-656.6287841796876	-324.1801452636719	292.1731567382813	-662.0534057617189	-308.4368591308594	241.8545532226563	-690.4989013671876	-374.2763977050782	92.27444458007814	-663.6475830078126	-330.6561279296876	104.1601333618164	-747.0849609375001	-418.1260070800782	51.56328582763673	-723.8819580078126	-206.2430725097657	56.17779541015626	-697.7585449218751	-214.5864257812501	59.24925994873048	-652.2866821289064	-270.6320190429688	30.87923240661622	-605.5299072265626	-239.208724975586	942.8447875976565	-1012.153442382813	
207	1.03	39.91785430908204	1461.813110351563	-894.987487792969	-56.40813446044923	1589.986450195313	-983.4067382812502	-70.56316375732423	1615.639770507813	-838.637145996094	-260.8460998535157	1504.63134765625	-917.4670410156252	-394.2187500000001	1192.573852539063	-910.400329589844	-158.9627532958985	1374.442749023438	-912.111999511719	-199.2359313964844	1426.419189453125	-1091.402099609375	-339.2845458984376	1342.528076171875	-1211.23583984375	-311.2392272949219	1304.910278320313	-1229.867065429688	-365.9423828125001	1291.414672851563	-1250.430541992188	-375.2493896484376	1226.217041015625	-1282.5859375	-433.4928283691407	1212.609985351563	-1204.45166015625	-298.1458129882813	1058.984497070313	-1110.124755859375	-265.0363464355469	1020.588562011719	-1170.295288085938	-237.6753540039063	1043.796508789063	-1074.33642578125	-215.3331146240235	1445.127563476563	-750.0502319335939	-358.9101867675782	1366.71826171875	-618.0375976562501	-333.1776428222657	1328.94921875	-597.9537353515626	-387.4820556640626	1318.08740234375	-575.0882568359376	-396.0269165039064	1250.500122070313	-541.3820800781251	-458.6753540039064	1233.841674804688	-607.5839843750001	-313.2152099609376	1070.333129882813	-703.5171508789064	-295.3999023437501	1033.015380859375	-640.4587402343751	-254.3236846923829	1041.844116210938	-728.0171508789064	-244.8993835449219	945.069763183594	-782.7835083007815	-414.550506591797	1044.923095703125	-910.5430908203127	-422.6636962890626	1015.188354492188	-939.4134521484377	-420.8172302246095	1014.158020019531	-881.3226318359377	-340.8139648437501	811.129577636719	-1103.251953125	-310.4507141113282	733.5241088867189	-1116.88037109375	-262.5463867187501	732.6497802734376	-1105.31494140625	-341.6627197265626	680.5847167968751	-1118.282836914063	-368.8645324707032	506.6211853027345	-1103.8447265625	-322.8222961425782	476.0636596679689	-993.3538208007815	-315.8596191406251	313.8229980468751	-1055.377807617188	-337.9933166503907	280.2931823730469	-1133.2490234375	-311.3222656250001	273.1982421875001	-1096.190795898438	-313.7496948242188	190.3011932373047	-1080.094116210938	-363.1311950683594	95.48858642578126	-1137.182006835938	-327.0350036621094	100.770866394043	-1053.892822265625	-201.3887023925782	63.95704650878908	-1104.57763671875	-210.5567626953126	63.64093017578126	-1147.422241210938	-257.4931030273438	43.00834274291993	-1187.14794921875	-362.2216491699219	784.3891601562502	-693.7285156250001	-325.8323974609376	730.1907958984376	-677.1055908203126	-292.3790588378907	731.7505493164064	-680.5103149414064	-350.9432373046876	649.5404663085939	-683.8182983398439	-339.7477722167969	500.5932006835939	-688.0192871093751	-292.4278259277344	483.6167602539064	-798.8450317382815	-302.4106750488282	372.1819458007813	-686.8742675781251	-371.2173461914063	292.8858947753907	-656.8739013671876	-324.5976867675782	292.1833496093751	-661.9221801757814	-308.7240905761719	242.0153198242188	-690.2310180664064	-374.2427673339844	92.24605560302736	-663.8611450195314	-330.6838989257813	104.0240249633789	-747.1763305664064	-417.899139404297	51.62075805664064	-724.1191406250001	-206.4403381347657	56.39881896972658	-697.7172851562501	-214.4880676269532	59.17761230468751	-652.1670532226564	-270.6347351074219	30.84754943847657	-605.4707641601564	-241.4557037353516	941.094909667969	-1012.277282714844	
208	1.035	39.95066452026368	1461.758666992188	-894.915222167969	-56.34248352050783	1589.951416015625	-983.463806152344	-70.30586242675783	1615.66845703125	-838.7133789062502	-260.7505798339844	1504.650146484375	-917.2612915039065	-394.1065673828126	1192.609008789063	-909.949890136719	-158.9196319580078	1374.412841796875	-912.0124511718752	-199.3961486816407	1426.449584960938	-1091.315185546875	-339.6882629394532	1342.426635742188	-1210.875732421875	-310.6924133300782	1304.94775390625	-1230.13525390625	-366.2485656738282	1291.266479492188	-1249.976196289063	-375.7579956054688	1226.074462890625	-1282.083862304688	-433.7757873535157	1212.6279296875	-1203.903198242188	-298.6355285644532	1058.869750976563	-1109.636352539063	-265.4436950683594	1020.547729492188	-1169.984008789063	-237.9181823730469	1043.68359375	-1073.955810546875	-214.9751434326172	1445.222412109375	-749.8061523437501	-358.3551025390626	1366.512084960938	-617.6520385742189	-332.7952575683594	1328.9521484375	-597.5189819335939	-386.8062133789064	1318.020874023438	-574.9500732421876	-395.6456298828126	1250.476928710938	-541.1348876953126	-458.3839111328126	1233.853149414063	-607.2661132812501	-312.9392089843751	1070.333251953125	-703.3107299804689	-295.2502441406251	1033.02734375	-640.0849609375001	-254.089584350586	1041.800170898438	-727.7190551757814	-244.9218750000001	945.1096801757815	-782.5056152343752	-414.6147766113282	1045.054931640625	-910.112243652344	-422.7804260253907	1015.373352050781	-939.073181152344	-420.8601989746095	1014.33837890625	-880.9291992187502	-341.2593994140626	811.0881958007815	-1102.908325195313	-310.8277282714844	733.5076904296876	-1116.508666992188	-262.9047851562501	732.7090454101564	-1105.015625	-341.9262084960938	680.5479125976564	-1117.938598632813	-369.0293884277344	506.6049194335939	-1103.471801757813	-322.8569946289063	476.0315856933595	-992.8701782226565	-315.9740905761719	313.7353820800782	-1055.173461914063	-338.2303771972657	279.7722473144532	-1133.146850585938	-311.2326660156251	273.1984558105469	-1096.078735351563	-313.7766418457032	190.3375396728516	-1079.893798828125	-363.0874938964844	95.5492401123047	-1137.10498046875	-326.8055114746094	100.9275970458985	-1053.861206054688	-201.3808898925782	63.97258758544923	-1104.562866210938	-210.2696228027344	63.23894119262697	-1147.264038085938	-257.4066162109376	43.05904006958009	-1187.134765625	-362.7907409667969	784.5715942382815	-693.5684814453126	-326.0212402343751	730.3381958007814	-677.0763549804689	-292.9769897460938	731.8440551757814	-679.8228759765626	-351.3325500488282	649.8265991210939	-683.8057861328126	-340.1252746582032	500.6272888183595	-687.9776000976564	-292.4248657226563	483.7333984375001	-798.6967773437502	-302.8306274414063	372.1834411621094	-686.7558593750001	-371.6507568359376	292.8963928222657	-656.9246215820314	-325.0522155761719	292.3413085937501	-661.9715576171876	-308.8101196289063	242.0851440429688	-690.1824951171876	-374.2452087402344	92.33135223388673	-664.0384521484376	-330.7896423339844	103.9093246459961	-747.1717529296876	-417.7322387695314	51.69214248657228	-724.3317260742189	-206.0281372070313	56.2483253479004	-697.5916748046876	-214.5230712890626	59.27722930908205	-651.9208374023439	-270.6954956054688	30.80279159545899	-605.4530639648439	-241.6277770996094	941.0463867187502	-1011.791198730469	
